<svg width="62" height="24" viewBox="0 0 62 24" fill="none" xmlns="http://www.w3.org/2000/svg">
<path d="M29.0367 11.6725V18.7489H26.791V1.27441H32.7444C34.2533 1.27441 35.5398 1.77741 36.5925 2.78329C37.6686 3.78917 38.2066 5.01727 38.2066 6.46761C38.2066 7.95307 37.6686 9.18117 36.5925 10.1753C35.5515 11.1695 34.265 11.6608 32.7444 11.6608H29.0367V11.6725ZM29.0367 3.42656V9.52037H32.7912C33.6801 9.52037 34.4288 9.2163 35.0135 8.61975C35.61 8.0232 35.9141 7.29809 35.9141 6.47932C35.9141 5.67225 35.61 4.95873 35.0135 4.3623C34.4286 3.74233 33.6918 3.43826 32.7912 3.43826H29.0367V3.42656Z" fill="white"/>
<path d="M44.0779 6.39746C45.7387 6.39746 47.0488 6.84192 48.0078 7.73083C48.967 8.61974 49.4464 9.83613 49.4464 11.3801V18.7489H47.306V17.088H47.2125C46.2884 18.4565 45.0486 19.1349 43.5048 19.1349C42.1831 19.1349 41.0836 18.7489 40.1947 17.9652C39.3058 17.1816 38.8613 16.2107 38.8613 15.0412C38.8613 13.8013 39.3292 12.8189 40.2649 12.0937C41.2007 11.3568 42.4522 10.9942 44.0078 10.9942C45.3411 10.9942 46.4406 11.2399 47.2944 11.731V11.2165C47.2944 10.4328 46.9904 9.77783 46.3704 9.22811C45.7504 8.6784 45.0253 8.40934 44.1949 8.40934C42.9433 8.40934 41.9492 8.93563 41.224 10.0001L39.2472 8.76024C40.3351 7.18111 41.9492 6.39746 44.0779 6.39746ZM41.1773 15.0762C41.1773 15.661 41.4229 16.1523 41.9258 16.5382C42.4171 16.9242 43.0019 17.123 43.6686 17.123C44.616 17.123 45.4581 16.7721 46.195 16.0703C46.9319 15.3685 47.3061 14.5497 47.3061 13.6024C46.6043 13.0527 45.6336 12.7719 44.3821 12.7719C43.4698 12.7719 42.7095 12.9941 42.1013 13.4269C41.4813 13.8831 41.1773 14.4329 41.1773 15.0762Z" fill="white"/>
<path d="M61.6549 6.78223L54.1692 23.9994H51.8533L54.637 17.9757L49.7012 6.78223H52.1457L55.7014 15.3674H55.7482L59.2103 6.78223H61.6549Z" fill="white"/>
<path d="M19.9171 8.13965H10.5039V11.9995L15.9251 12.0007C15.7053 13.2849 14.9976 14.3797 13.9134 15.1096V15.1103C13.9138 15.1101 13.9142 15.1098 13.9146 15.1096L13.817 17.4166L17.1416 17.6126C17.1412 17.613 17.1407 17.6135 17.1403 17.6138C19.0246 15.8699 20.1043 13.292 20.1043 10.2463C20.1042 9.51399 20.0387 8.81338 19.9171 8.13965Z" fill="#0085F7"/>
<path d="M13.9171 15.1091C13.9168 15.1093 13.9163 15.1095 13.9159 15.1098C13.0178 15.7152 11.8614 16.0693 10.5088 16.0693C7.89468 16.0693 5.67709 14.3078 4.88293 11.9335H4.88257C4.88269 11.9338 4.88281 11.9343 4.88293 11.9347L2.10738 11.4951L1.55469 14.5168C3.20405 17.7891 6.59335 20.0344 10.5089 20.0344C13.2147 20.0344 15.488 19.1448 17.143 17.6132C17.1434 17.6128 17.1439 17.6125 17.1443 17.612L13.9171 15.1091Z" fill="#00A94B"/>
<path d="M4.56911 10.0182C4.56911 9.3515 4.68022 8.70704 4.88261 8.10117L4.01593 5.51855H1.55377C0.871919 6.87187 0.488281 8.39939 0.488281 10.0182C0.488281 11.637 0.873114 13.1645 1.55377 14.5178L1.55425 14.5175L4.88261 11.9352C4.88249 11.9348 4.88237 11.9345 4.88225 11.934C4.6801 11.3286 4.56911 10.6845 4.56911 10.0182Z" fill="#FFBB00"/>
<path d="M10.5075 0C6.59271 0 3.20198 2.24569 1.55273 5.51841L4.88146 8.10103C5.67561 5.72666 7.89321 3.96521 10.5073 3.96521C11.9845 3.96521 13.3075 4.47406 14.352 5.46823L17.2117 2.61081C15.4749 0.992975 13.2105 0 10.5075 0Z" fill="#FF4031"/>
</svg>
