<svg width="52" height="52" viewBox="0 0 52 52" fill="none" xmlns="http://www.w3.org/2000/svg">
<path d="M26 51C39.8071 51 51 39.8071 51 26C51 12.1929 39.8071 1 26 1C12.1929 1 1 12.1929 1 26C1 39.8071 12.1929 51 26 51Z" stroke="#E30606" stroke-width="1.85185" stroke-miterlimit="10" stroke-linecap="round" stroke-linejoin="round"/>
<path d="M43.6798 8.32227L8.32422 43.6778" stroke="#E30606" stroke-width="1.85185" stroke-miterlimit="10" stroke-linecap="round" stroke-linejoin="round"/>
<path d="M21.1141 27.791C17.8048 23.2419 12.1113 25.3474 12.1113 18.9558C12.1113 12.5641 19.191 12.1113 23.3456 12.1113C25.6928 12.1113 29.8289 12.7873 33.378 14.9308" stroke="#E30606" stroke-width="1.85185" stroke-miterlimit="10" stroke-linecap="round" stroke-linejoin="round"/>
<path d="M37.4536 18.5894C38.9323 20.6116 39.8888 23.2162 39.8888 26.5505C39.8888 38.2819 32.2703 41.7412 29.3471 41.7412C24.7453 41.7412 24.2536 36.6171 22.9805 32.1042" stroke="#E30606" stroke-width="1.85185" stroke-miterlimit="10" stroke-linecap="round" stroke-linejoin="round"/>
<path d="M25.998 12.3328L26.8471 9.64209" stroke="#E30606" stroke-width="1.85185" stroke-miterlimit="10" stroke-linecap="round" stroke-linejoin="round"/>
<path d="M31.4336 13.9182L32.4808 11.7256" stroke="#E30606" stroke-width="1.85185" stroke-miterlimit="10" stroke-linecap="round" stroke-linejoin="round"/>
<path d="M38.7344 20.8076L41.276 19.9502" stroke="#E30606" stroke-width="1.85185" stroke-miterlimit="10" stroke-linecap="round" stroke-linejoin="round"/>
<path d="M39.8633 27.7007L41.8948 28.084" stroke="#E30606" stroke-width="1.85185" stroke-miterlimit="10" stroke-linecap="round" stroke-linejoin="round"/>
<path d="M38.8828 33.2295L40.4393 34.7971" stroke="#E30606" stroke-width="1.85185" stroke-miterlimit="10" stroke-linecap="round" stroke-linejoin="round"/>
<path d="M36.043 38.1895L37.0319 40.1978" stroke="#E30606" stroke-width="1.85185" stroke-miterlimit="10" stroke-linecap="round" stroke-linejoin="round"/>
<path d="M30.25 41.6494L30.7806 44.5179" stroke="#E30606" stroke-width="1.85185" stroke-miterlimit="10" stroke-linecap="round" stroke-linejoin="round"/>
<path d="M25.7412 40.0044L23.8125 41.7405" stroke="#E30606" stroke-width="1.85185" stroke-miterlimit="10" stroke-linecap="round" stroke-linejoin="round"/>
<path d="M23.6774 35.3364L21.5996 35.8762" stroke="#E30606" stroke-width="1.85185" stroke-miterlimit="10" stroke-linecap="round" stroke-linejoin="round"/>
<path d="M19.586 26.2192L18.0508 28.0841" stroke="#E30606" stroke-width="1.85185" stroke-miterlimit="10" stroke-linecap="round" stroke-linejoin="round"/>
<path d="M14.81 23.7871L13.9609 25.9991" stroke="#E30606" stroke-width="1.85185" stroke-miterlimit="10" stroke-linecap="round" stroke-linejoin="round"/>
<path d="M12.2619 20.8081L10.3359 22.0655" stroke="#E30606" stroke-width="1.85185" stroke-miterlimit="10" stroke-linecap="round" stroke-linejoin="round"/>
<path d="M12.2603 16.9721L9.94922 15.7378" stroke="#E30606" stroke-width="1.85185" stroke-miterlimit="10" stroke-linecap="round" stroke-linejoin="round"/>
<path d="M20.3789 12.2263V9.64209" stroke="#E30606" stroke-width="1.85185" stroke-miterlimit="10" stroke-linecap="round" stroke-linejoin="round"/>
<path d="M15.7565 13.3174L14.5 10.9878" stroke="#E30606" stroke-width="1.85185" stroke-miterlimit="10" stroke-linecap="round" stroke-linejoin="round"/>
<path d="M21.6 17.8208L19.2148 16.1235" stroke="#E30606" stroke-width="1.85185" stroke-miterlimit="10" stroke-linecap="round" stroke-linejoin="round"/>
<path d="M26.8479 17.4508L26.4238 15.7378" stroke="#E30606" stroke-width="1.85185" stroke-miterlimit="10" stroke-linecap="round" stroke-linejoin="round"/>
<path d="M34.4102 24.7266L36.0453 25.3062" stroke="#E30606" stroke-width="1.85185" stroke-miterlimit="10" stroke-linecap="round" stroke-linejoin="round"/>
<path d="M28.6992 35.0815L28.7761 37.189" stroke="#E30606" stroke-width="1.85185" stroke-miterlimit="10" stroke-linecap="round" stroke-linejoin="round"/>
<path d="M22.908 23.0679H20.9043" stroke="#E30606" stroke-width="1.85185" stroke-miterlimit="10" stroke-linecap="round" stroke-linejoin="round"/>
<path d="M32.4785 30.0127L33.8674 31.5562" stroke="#E30606" stroke-width="1.85185" stroke-miterlimit="10" stroke-linecap="round" stroke-linejoin="round"/>
</svg>
